<?xml version="1.0" standalone="no"?>
<!DOCTYPE svg PUBLIC "-//W3C//DTD SVG 20010904//EN"
 "http://www.w3.org/TR/2001/REC-SVG-20010904/DTD/svg10.dtd">
<svg version="1.0" xmlns="http://www.w3.org/2000/svg"
 width="176.000000pt" height="176.000000pt" viewBox="0 0 176.000000 176.000000"
 preserveAspectRatio="xMidYMid meet">
<metadata>
Created by potrace 1.14, written by Peter Selinger 2001-2017
</metadata>
<g transform="translate(0.000000,176.000000) scale(0.100000,-0.100000)"
fill="#000000" stroke="none">
<path d="M1436 1519 c-136 -32 -348 -190 -452 -337 -23 -34 -35 -42 -61 -42
-51 0 -170 -28 -213 -50 -21 -11 -43 -20 -47 -20 -4 0 -20 19 -35 43 -39 61
-120 152 -171 191 -75 57 -151 104 -179 111 -32 8 -35 2 -10 -24 101 -108 135
-154 124 -165 -4 -4 -1 -6 6 -4 7 2 20 -10 30 -25 16 -27 16 -29 -2 -43 -16
-11 -17 -17 -8 -26 10 -10 15 -10 23 2 9 12 10 12 5 -3 -3 -10 -6 -35 -7 -55
0 -30 -2 -33 -9 -17 -7 17 -9 18 -9 2 -1 -9 9 -22 22 -28 13 -6 23 -19 24 -30
1 -15 -5 -19 -28 -19 -29 0 -41 -22 -18 -36 8 -4 7 -9 -2 -15 -10 -6 -11 -9
-1 -9 6 0 12 -7 12 -15 0 -8 8 -15 18 -16 13 0 12 -2 -5 -9 -13 -5 -23 -15
-23 -22 0 -10 2 -10 9 1 7 11 11 8 17 -10 4 -13 7 -28 5 -34 -25 -79 -10 -239
29 -315 28 -55 86 -117 129 -139 46 -24 128 -41 191 -41 48 0 51 -2 77 -42 42
-68 72 -140 86 -209 l13 -64 392 -3 392 -2 0 26 c0 32 -65 96 -220 217 -122
95 -184 157 -211 209 -24 47 -24 76 1 113 39 56 51 98 51 175 0 70 3 81 50
172 72 141 100 252 106 423 5 133 4 141 -17 168 -23 29 -25 30 -84 16z m-296
-604 c32 -17 73 -66 89 -107 8 -22 6 -33 -12 -60 -35 -51 -82 -78 -139 -78
-39 0 -54 5 -73 25 -22 21 -25 33 -25 94 0 64 3 73 31 106 35 40 78 46 129 20z
m-465 -118 c34 -34 55 -88 55 -144 0 -76 -135 -119 -195 -63 -25 23 -27 30
-22 87 7 91 50 150 111 152 10 1 33 -14 51 -32z m200 -177 c-3 -5 -16 -10 -28
-9 -20 1 -20 2 3 9 14 4 26 8 28 9 2 1 0 -3 -3 -9z"/>
<path d="M1076 853 c-14 -14 7 -113 24 -113 14 0 13 67 -1 75 -6 4 -8 13 -5
21 6 15 -7 27 -18 17z"/>
<path d="M610 728 c0 -49 11 -78 27 -78 12 0 14 8 8 37 -4 21 -11 41 -17 44
-6 4 -7 12 -4 18 4 6 2 11 -3 11 -6 0 -11 -15 -11 -32z"/>
<path d="M181 1324 c0 -11 3 -14 6 -6 3 7 2 16 -1 19 -3 4 -6 -2 -5 -13z"/>
<path d="M405 1020 c3 -5 8 -10 11 -10 2 0 4 5 4 10 0 6 -5 10 -11 10 -5 0 -7
-4 -4 -10z"/>
<path d="M431 824 c0 -11 3 -14 6 -6 3 7 2 16 -1 19 -3 4 -6 -2 -5 -13z"/>
<path d="M364 783 c8 -15 26 -41 38 -57 l24 -28 0 38 c1 22 -1 31 -3 22 -3
-10 -8 -18 -13 -18 -8 0 -24 29 -22 41 0 3 -8 11 -19 17 -19 12 -19 12 -5 -15z"/>
</g>
</svg>
